<svg width="70" height="57" viewBox="0 0 70 57" fill="none" xmlns="http://www.w3.org/2000/svg">
<path d="M35.367 43.7222C38.6921 43.7222 42.0138 43.5833 45.3148 43.3834C48.7518 43.4158 52.1661 42.8324 55.3902 41.6618C56.8706 41.0466 58.1466 40.0372 59.0741 38.7473C59.9781 37.3392 60.6238 35.7861 60.9815 34.1587C61.8107 30.6865 62.3175 27.1476 62.4958 23.5853C62.7865 19.9892 62.8522 16.3788 62.6924 12.7747C62.819 9.57585 61.7505 6.44193 59.688 3.96355C57.3971 2.10298 54.5486 1.0316 51.5787 0.913536C46.2012 0.258708 40.7854 -0.0447016 35.367 0.00530808C29.9485 -0.0447016 24.5327 0.258708 19.1552 0.913536C16.1853 1.0316 13.3368 2.10298 11.0459 3.96355C8.98345 6.44193 7.91488 9.57585 8.04153 12.7747C7.88175 16.3788 7.94741 19.9892 8.23814 23.5853C8.41639 27.1476 8.92322 30.6865 9.75238 34.1587C10.1117 35.7814 10.7573 37.3298 11.6599 38.7338C12.5873 40.0236 13.8633 41.0331 15.3437 41.6482C18.5678 42.8188 21.9821 43.4022 25.4191 43.3698C28.7236 43.5844 32.0395 43.7019 35.367 43.7222ZM42.8037 40.9535C42.4587 41.0111 41.3412 41.0111 40.096 41.0382C38.5185 41.0721 36.9421 41.0857 35.367 41.0789C33.7906 41.0755 32.2177 41.0789 30.638 41.0382C29.3928 41.0111 28.2648 41.0111 27.9268 40.9535C27.5888 40.8959 27.2369 40.8756 27.3473 40.5096C27.4577 40.1436 28.9616 35.3449 28.9616 35.3449C29.955 32.1559 30.024 31.956 32.5765 31.4544C34.4183 31.0902 36.3156 31.0902 38.1575 31.4544C40.7099 31.9458 40.7789 32.1559 41.7723 35.3449C41.7723 35.3449 43.2866 40.1402 43.3866 40.5096C43.4866 40.879 43.1417 40.8959 42.8037 40.9535ZM49.5885 38.6457C50.1679 34.1497 50.6279 29.6447 50.9682 25.1307L51.0441 24.3783C51.7983 17.574 52.1633 10.7335 52.1375 3.889C52.1866 3.80811 52.2564 3.7412 52.3398 3.69485C52.4233 3.64849 52.5176 3.62431 52.6135 3.62466C53.2275 3.80089 53.8622 3.96356 54.4796 4.20078L54.7486 4.30584H54.7728C55.1436 4.45565 55.5052 4.62651 55.8559 4.81756C56.2157 5.0215 56.5492 5.26727 56.8493 5.54956L56.8665 5.5699C56.9911 5.68883 57.1064 5.81684 57.2114 5.95285L57.3391 6.10873C58.9922 9.25313 59.6493 12.8118 59.2258 16.3263C59.3025 20.5542 59.0569 24.7818 58.4911 28.9737L58.3463 30.0683V30.1192L58.2255 31.0104L58.1669 31.4002L58.1014 31.834L57.991 32.4711L57.9082 32.8981L57.8323 33.2539C57.7592 33.6074 57.6717 33.9578 57.5702 34.3045C57.5334 34.44 57.492 34.5722 57.446 34.701C57.4012 34.8331 57.3425 35.0127 57.2873 35.1619C57.2321 35.311 57.1907 35.4228 57.1356 35.5482C57.0585 35.7441 56.9721 35.9363 56.8769 36.1243C56.5801 36.7534 56.1869 37.334 55.711 37.8459C54.9866 38.6118 49.5298 41.7397 49.5022 39.5674C49.5091 39.3799 49.5379 39.0727 49.5885 38.6457ZM15.0436 37.856C14.5677 37.3442 14.1745 36.7635 13.8778 36.1345C13.7258 35.8146 13.5865 35.489 13.4604 35.1585L13.3086 34.7145C13.2603 34.562 13.2224 34.4468 13.1844 34.3112L13.0775 33.9215C13.0223 33.7046 12.9694 33.4787 12.9188 33.2437L12.8464 32.9049L12.7602 32.4745L12.6533 31.834L12.5877 31.4103L12.5291 31.0003L12.4221 30.2208L12.3911 29.9904L12.2566 28.9737C11.6908 24.7818 11.4452 20.5542 11.5219 16.3263C11.0995 12.8122 11.7553 9.25416 13.4052 6.10873L13.5259 5.96301C13.6309 5.82701 13.7462 5.699 13.8709 5.58007L13.8916 5.55973C14.1904 5.28381 14.5215 5.04377 14.8781 4.84467C15.2319 4.65096 15.597 4.47783 15.9715 4.32617L16.2509 4.22111C16.8649 3.99744 17.4995 3.82122 18.1135 3.645C18.2094 3.64464 18.3037 3.66883 18.3872 3.71518C18.4706 3.76153 18.5404 3.82845 18.5895 3.90933C18.5637 10.7538 18.9288 17.5944 19.6829 24.3987L19.7588 25.151C20.1038 29.6583 20.5487 34.1554 21.1386 38.6457L21.242 39.6047C21.2075 41.7465 15.7542 38.6219 15.0436 37.856ZM23.6048 3.0011C27.507 2.5405 31.438 2.35815 35.367 2.45549C39.2959 2.35815 43.2269 2.5405 47.1291 3.0011C47.3257 3.07905 47.343 3.22138 47.2498 3.55689C46.084 7.72525 44.7387 13.2559 43.5384 17.4514C42.5795 20.7997 41.4688 25.1171 37.3296 25.5441C36.6824 25.616 36.032 25.6579 35.3808 25.6695C34.715 25.6797 34.0528 25.6085 33.4319 25.5441C29.2686 25.1171 28.1682 20.7997 27.2231 17.4514C26.0228 13.2627 24.6775 7.73202 23.5117 3.55689C23.3875 3.22138 23.4082 3.07905 23.6048 3.0011ZM36.9088 50.0832L37.9988 50.2154C38.3817 50.2628 38.4713 50.578 38.4713 50.9406V54.7396L34.3322 49.3885C34.2624 49.2832 34.1667 49.1969 34.054 49.1377C33.9412 49.0784 33.815 49.0481 33.6871 49.0496H28.1683V50.09L29.203 50.2086C29.5721 50.2628 29.7066 50.4492 29.7066 50.9508V54.8379C29.7066 55.2988 29.579 55.5157 29.1858 55.5767L28.151 55.6953V56.7119H33.1491V55.6953L32.0763 55.5767C31.9312 55.5502 31.8017 55.4709 31.7134 55.3547C31.6252 55.2385 31.5848 55.0939 31.6003 54.9497V51.0457L35.7602 56.4273C35.838 56.5217 35.9363 56.5978 36.0479 56.6499C36.1595 56.7021 36.2816 56.7291 36.4052 56.7289H40.3305V50.9101C40.3305 50.639 40.403 50.2628 40.8065 50.2323L41.8965 50.1137V49.0733H36.895L36.9088 50.0832ZM21.4662 48.7548C17.0477 48.7548 15.0678 50.4492 15.0678 52.8554C15.0678 55.3259 17.0477 57 21.4662 57C25.8848 57 27.8337 55.3259 27.8337 52.8554C27.8337 50.4425 25.8538 48.7548 21.4662 48.7548ZM21.4662 55.5326C19.6864 55.5326 18.6757 54.8853 18.6757 52.8655C18.6757 50.8457 19.6864 50.229 21.4662 50.229C23.2461 50.229 24.2602 50.8762 24.2602 52.8655C24.2602 54.8548 23.2288 55.536 21.449 55.536L21.4662 55.5326ZM8.48994 50.0832L9.57992 50.2154C9.94899 50.2628 10.0559 50.5543 10.0559 50.9271V52.1166H5.22689V50.9101C5.22689 50.4594 5.4097 50.2323 5.73394 50.2323L6.78942 50.1137V49.0733H0.556522V50.1137L1.59131 50.2323C2.00523 50.2798 2.11216 50.5712 2.09836 50.9745V54.8616C2.09836 55.2988 1.97419 55.5394 1.57752 55.6004L0.542725 55.719V56.7357H6.81357V55.719L5.73049 55.5834C5.48559 55.5529 5.24068 55.4004 5.24068 54.9057V53.645H10.0697V54.8243C10.0697 55.1632 10.0076 55.5021 9.59371 55.5462L8.48994 55.6783V56.7323H14.7608V55.6783L13.657 55.5563C13.4431 55.5258 13.1982 55.3598 13.1982 54.9226V50.9338C13.1982 50.5238 13.35 50.2561 13.6708 50.2222L14.7608 50.1036V49.0632H8.48994V50.0832ZM50.2921 49.0564H42.5553V50.0968L43.5246 50.1951C43.6019 50.2046 43.6765 50.2292 43.744 50.2674C43.8115 50.3057 43.8706 50.3567 43.9178 50.4176C43.965 50.4785 43.9994 50.548 44.0189 50.6221C44.0385 50.6962 44.0428 50.7734 44.0316 50.8491V54.9802C44.0499 55.1176 44.014 55.2566 43.9313 55.3688C43.8485 55.481 43.7252 55.5578 43.5867 55.5834L42.5519 55.7156V56.7323H50.2921C53.8518 56.7323 55.3833 55.0378 55.3833 52.7842C55.4006 50.761 53.8518 49.0564 50.2921 49.0564ZM49.0952 55.2513H47.1015V50.5068H49.0952C50.9992 50.5068 51.796 50.9474 51.796 52.8791C51.796 54.8108 50.9992 55.2513 49.0952 55.2513ZM68.4389 55.5529C68.094 55.5089 67.8733 55.1768 67.5939 54.7532L64.0825 49.48C64.0118 49.3591 63.9119 49.2571 63.7916 49.1833C63.6712 49.1094 63.5342 49.0658 63.3926 49.0564H57.377V50.0968L58.7567 50.2561C58.8303 50.2632 58.9006 50.29 58.9599 50.3334C59.0192 50.3768 59.0653 50.4353 59.0933 50.5025C59.1213 50.5698 59.1302 50.6433 59.1189 50.7151C59.1076 50.7869 59.0766 50.8543 59.0292 50.9101L56.3905 55.1293C56.3394 55.2438 56.261 55.3445 56.1619 55.4229C56.0629 55.5014 55.9461 55.5553 55.8214 55.58L54.7659 55.6987V56.7153H59.7639V55.6783L58.9051 55.5733C58.5601 55.5258 58.3221 55.3157 58.5601 54.9531L58.9292 54.3668H63.7306L64.0514 54.848C64.3964 55.3462 64.0514 55.5258 63.6375 55.5733L62.7786 55.6783V56.7187H69.5427V55.6783L68.4389 55.5529ZM59.7881 53.0214L61.292 50.6492L62.8235 53.0214H59.7881Z" fill="#CC0001"/>
</svg>
